<?xml version="1.0" encoding="utf-8"?>
<!-- Generator: Adobe Illustrator 25.2.1, SVG Export Plug-In . SVG Version: 6.00 Build 0)  -->
<svg version="1.1" id="Layer_1" xmlns="http://www.w3.org/2000/svg" xmlns:xlink="http://www.w3.org/1999/xlink" x="0px" y="0px"
	 viewBox="0 0 64 64" style="enable-background:new 0 0 64 64;" xml:space="preserve">
<style type="text/css">
	.st0{fill:#0076AD;}
</style>
<g>
	<path class="st0" d="M26.67,48.25c0.08,1.23,0.14,2.16,0.21,3.18c0.42,0.07,0.8,0.16,1.18,0.18c5.99,0.22,21.99,0.08,24.01-0.22
		c0.05-0.58,0.15-1.19,0.16-1.8c0.27-15.52,0.12-34.85-0.26-36.84c-0.05-0.06-0.09-0.13-0.16-0.17c-0.06-0.04-0.15-0.07-0.22-0.07
		c-7.73-0.03-15.46-0.06-23.19-0.08c-0.31,0-0.63,0.02-0.94,0.07c-0.14,0.02-0.27,0.14-0.52,0.27c-0.41,2.38,0.07,4.9-0.28,7.53
		c-1.57-0.46-2.98-0.88-4.44-1.31c-0.08-0.35-0.21-0.64-0.21-0.93c-0.02-2.44-0.02-4.89-0.02-7.33c0-0.31,0.01-0.63,0.06-0.94
		c0.2-1.2,0.98-1.95,2.22-2.09c0.55-0.06,1.1-0.03,1.66-0.03c9,0,17.99,0,26.99,0c0.47,0,0.95-0.02,1.42,0.01
		c1.74,0.11,2.52,0.89,2.66,2.68c0.04,0.47,0.02,0.95,0.02,1.42c0,13.56,0,27.12,0,40.69c0,0.55,0.02,1.11-0.05,1.65
		c-0.17,1.36-0.98,2.12-2.32,2.24c-0.47,0.04-0.95,0.02-1.42,0.02c-9.15,0-18.31,0-27.46,0c-3.23,0-3.76-0.51-3.77-3.66
		c0-1.01-0.17-2.04,0.23-3.13C23.61,49.16,25.02,48.74,26.67,48.25z"/>
	<path class="st0" d="M48.27,33.3c-1.26-1.81-2.52-3.62-3.78-5.43c-0.44-0.63-1.03-0.93-1.81-0.9c-0.71,0.03-1.42,0-2.13,0
		c-3.31,0-6.61,0-10.01,0c-6.44-7.91-15.43-6.14-19.68-1.91c-5.16,5.15-5.17,13.22,0,18.42c4.12,4.15,13.2,6.04,19.62-1.82
		c0.56-0.03,1.19-0.11,1.81-0.07c1.04,0.07,1.8-0.36,2.47-1.12c0.56-0.64,1.05-1.36,1.99-1.83c0.53,0.59,1.05,1.16,1.55,1.74
		c0.47,0.54,0.93,1.15,1.71,1.15c1.25,0,2.5-0.07,3.74-0.19c0.25-0.02,0.51-0.36,0.68-0.61c1.29-1.89,2.55-3.79,3.82-5.68
		C48.66,34.47,48.67,33.88,48.27,33.3z M19.13,39.14c-2.56,0.05-4.87-2.16-4.95-4.74c-0.09-2.65,2.24-5.01,4.93-5
		c2.54,0.01,4.83,2.31,4.85,4.86C23.96,36.81,21.71,39.09,19.13,39.14z"/>
</g>
</svg>
