<?xml version="1.0" encoding="utf-8"?>
<!-- Generator: Adobe Illustrator 25.2.1, SVG Export Plug-In . SVG Version: 6.00 Build 0)  -->
<svg version="1.1" id="Layer_1" xmlns="http://www.w3.org/2000/svg" xmlns:xlink="http://www.w3.org/1999/xlink" x="0px" y="0px"
	 viewBox="0 0 256 256" style="enable-background:new 0 0 256 256;" xml:space="preserve">
<style type="text/css">
	.st0{fill:#0076AD;}
	.st1{fill:#F06322;}
</style>
<g>
	<path class="st0" d="M227.83,112.25c-0.01-2.22-1.13-3.64-3.38-4.24c-15.75-4.24-26.7-7.14-32.86-8.67
		c-0.28-0.07-0.47-0.32-0.47-0.6v-45.9c0-1.39-0.71-2.68-1.89-3.41l-45.12-28.02c-0.89-0.55-1.99-0.62-2.93-0.2L45.86,63.52
		c-1.74,0.77-2.5,2.82-1.68,4.54l0.13,0.28c0.76,1.85,2.89,2.7,4.72,1.91c0.2-0.08,5.12-2.28,14.78-6.58
		c46.14-20.58,69.31-30.89,69.5-30.93c2.65-0.67,4.52-3.06,6.84,0.11c0.22,0.3,0.35,0.68,0.35,1.06
		c-0.01,28.56-0.01,47.18-0.02,55.85c-0.01,4.27,2.7,4.28,6.69,5.34c17.24,4.62,26.43,7.04,27.58,7.26
		c2.89,0.58,5.65,1.39,8.28,2.42c0.26,0.11,0.53,0.16,0.79,0.18c0.54,0.04,0.84,0.07,0.91,0.08c21.41,5.69,33.04,8.78,34.88,9.24
		c0.39,0.09,0.65,0.44,0.65,0.83l-0.02,43.69c-8.99,0.6-18,0.81-27.02,0.65c-10.88-0.19-16.33-0.28-16.37-0.28
		c-28.4-0.11-60.65,0.04-96.74,0.43c-1.13,0.01-1.62-0.33-1.48-1.02l-0.2-77.78c0-1.78,1.7-3.05,3.4-2.56l40.79,11.98
		c1.85,0.55,2.86,2.51,2.24,4.34l-0.08,0.29c-0.54,1.84-2.45,2.89-4.29,2.35l-33.72-9.95c-0.23-0.07-0.48,0.11-0.48,0.36
		c-0.04,21.12-0.02,41.34,0.01,60.63c0,1.16,0.64,1.89,1.92,2.21l122-0.04c1.45-0.4,2.17-1.23,2.19-2.5
		c0.05-8.55,0.05-17.38,0.01-26.51c-0.01-0.36-0.26-0.69-0.61-0.78l-77.24-20.6c-0.39-0.11-0.65-0.46-0.65-0.85V39.84
		c0-0.39-0.4-0.65-0.75-0.49c-37.63,16.68-60.88,27.02-69.76,31c-1.88,0.84-3.06,1.34-3.57,1.5c-1.7,0.53-2.9,1.1-3.64,1.7
		c-0.01,0-0.01,0-0.02,0.01l-10.97,4.78c-0.39,0.18-0.64,0.56-0.64,0.98v5.73c0,0.43-0.25,0.82-0.63,1.02
		c-2.01,1.04-4.06,1.96-6.13,2.78c-1.54,0.61-3.57,1.39-6.07,2.34c-1.65,0.62-2.79,1.71-3.41,3.26c-0.11,0.25-0.15,0.51-0.15,0.79
		c0.02,41.37,0.01,63.06-0.02,65.06c-0.07,3.51,0.74,5.59,4.57,5.58c18.23-0.06,81.95-0.04,191.15,0.05c2.01,0,3.31-1.03,3.89-3.09
		c0.04-0.11,0.05-0.22,0.05-0.33C227.86,152.68,227.86,135.93,227.83,112.25z M183.67,96.74c0,0.25-0.23,0.43-0.47,0.36l-35.02-9.34
		c-0.16-0.04-0.28-0.19-0.28-0.36V33.11c0-0.3,0.33-0.48,0.57-0.33l35.02,21.76c0.11,0.06,0.18,0.19,0.18,0.32
		C183.67,54.86,183.67,96.74,183.67,96.74z M71.56,157.55c0,0.91-0.74,1.66-1.65,1.66h-32.8c-1.26,0-2.27-1.03-2.24-2.29
		c0.39-20.81,0.57-40.11,0.58-57.89c0.01-1.34,0.27-1.93,0.77-1.73l34.11-14.53c0.4-0.16,0.85,0.02,1.02,0.42l0.22,0.6L71.56,157.55
		z"/>
	<g>
		<g>
			<path class="st1" d="M29.51,203.35v-5.95c1.43,1.64,2.79,2.82,4.09,3.54s2.68,1.08,4.16,1.08c1.56,0,2.79-0.36,3.7-1.09
				c0.9-0.73,1.35-1.72,1.35-2.96c0-1.02-0.3-1.92-0.91-2.69s-2.06-1.89-4.36-3.35c-3.56-2.3-5.79-4.08-6.7-5.34
				s-1.36-2.76-1.36-4.51c0-2.45,0.87-4.46,2.6-6.03c1.73-1.57,3.97-2.35,6.7-2.35c1.22,0,2.41,0.18,3.59,0.53s2.37,0.9,3.57,1.63
				v5.11c-1.38-1.11-2.66-1.92-3.83-2.42s-2.34-0.75-3.52-0.75c-1.41,0-2.56,0.35-3.46,1.05c-0.89,0.7-1.34,1.6-1.34,2.69
				c0,1.56,1.86,3.5,5.57,5.81l0.68,0.41c3.02,1.88,4.99,3.53,5.93,4.97c0.93,1.43,1.4,3.21,1.4,5.33c0,2.4-0.87,4.39-2.61,5.96
				s-3.97,2.35-6.69,2.35c-1.7,0-3.23-0.24-4.6-0.72C32.09,205.17,30.77,204.41,29.51,203.35z"/>
			<path class="st1" d="M63.15,205.16c-0.65,0.36-1.34,0.63-2.08,0.8s-1.54,0.26-2.4,0.26c-2.34,0-3.99-0.56-4.94-1.67
				s-1.43-3.14-1.43-6.08v-9.87h-3.54v-0.41l7.28-8.04h0.47v4.84h6.51v3.6h-6.51v9.55c0,1.73,0.21,2.84,0.64,3.35
				c0.43,0.5,1.23,0.75,2.4,0.75c0.63,0,1.25-0.08,1.85-0.25s1.19-0.42,1.76-0.77v3.94H63.15z"/>
			<path class="st1" d="M65.16,195.38c0-3.02,1.07-5.58,3.22-7.68c2.15-2.1,4.77-3.15,7.86-3.15c1.46,0,2.85,0.27,4.18,0.82
				c1.33,0.55,2.52,1.33,3.57,2.35c1.07,1.08,1.88,2.27,2.43,3.56c0.56,1.29,0.83,2.66,0.83,4.1c0,1.43-0.29,2.82-0.86,4.17
				c-0.57,1.35-1.37,2.53-2.41,3.54c-1.05,1.04-2.23,1.82-3.55,2.34c-1.32,0.53-2.72,0.79-4.2,0.79c-3.09,0-5.72-1.05-7.86-3.15
				C66.23,200.96,65.16,198.4,65.16,195.38z M69.51,195.38c0,1.94,0.65,3.59,1.96,4.96c1.31,1.37,2.88,2.05,4.73,2.05
				c1.83,0,3.41-0.69,4.72-2.06s1.97-3.02,1.97-4.95c0-1.91-0.65-3.54-1.96-4.91c-1.31-1.37-2.88-2.05-4.73-2.05
				s-3.42,0.68-4.73,2.05C70.16,191.83,69.51,193.47,69.51,195.38z"/>
			<path class="st1" d="M107.49,200.88v4.24c-1.05,0.38-2.07,0.65-3.06,0.83c-0.99,0.18-1.98,0.27-2.95,0.27
				c-3.4,0-6.18-1.02-8.36-3.05c-2.18-2.03-3.27-4.63-3.27-7.78c0-3.08,1.09-5.65,3.27-7.73c2.18-2.07,4.9-3.11,8.18-3.11
				c1.01,0,2,0.11,2.97,0.32c0.98,0.21,1.94,0.53,2.88,0.97v4.44c-0.96-0.59-1.91-1.02-2.85-1.3s-1.9-0.42-2.87-0.42
				c-2.13,0-3.87,0.64-5.22,1.92c-1.34,1.28-2.02,2.91-2.02,4.91c0,2.04,0.68,3.71,2.05,4.99c1.37,1.28,3.16,1.93,5.38,1.93
				c1.02,0,2.02-0.12,2.99-0.35C105.59,201.71,106.55,201.36,107.49,200.88z"/>
			<path class="st1" d="M111.64,205.81v-31.52h4.15v31.52H111.64z M130,184.99l-8.72,9.51l10.48,11.31h-5.68l-10.16-11.09l8.97-9.73
				H130z"/>
			<path class="st1" d="M144.53,203.35v-5.95c1.43,1.64,2.79,2.82,4.09,3.54c1.3,0.72,2.68,1.08,4.16,1.08
				c1.56,0,2.79-0.36,3.7-1.09c0.9-0.73,1.35-1.72,1.35-2.96c0-1.02-0.3-1.92-0.91-2.69s-2.06-1.89-4.36-3.35
				c-3.56-2.3-5.79-4.08-6.7-5.34s-1.36-2.76-1.36-4.51c0-2.45,0.87-4.46,2.6-6.03c1.74-1.57,3.97-2.35,6.7-2.35
				c1.22,0,2.41,0.18,3.59,0.53s2.37,0.9,3.57,1.63v5.11c-1.38-1.11-2.66-1.92-3.83-2.42s-2.34-0.75-3.51-0.75
				c-1.41,0-2.57,0.35-3.46,1.05s-1.34,1.6-1.34,2.69c0,1.56,1.85,3.5,5.56,5.81l0.68,0.41c3.02,1.88,4.99,3.53,5.93,4.97
				c0.93,1.43,1.4,3.21,1.4,5.33c0,2.4-0.87,4.39-2.61,5.96c-1.74,1.57-3.97,2.35-6.69,2.35c-1.7,0-3.23-0.24-4.59-0.72
				C147.11,205.17,145.79,204.41,144.53,203.35z"/>
			<path class="st1" d="M172.15,201.71l-8.76-16.72h4.62l6.42,12.19l5.99-12.19h4.53l-15.46,31.3h-4.53L172.15,201.71z"/>
			<path class="st1" d="M187.16,205.81v-20.82h4.15v2.55c1.04-0.99,2.07-1.72,3.1-2.17s2.14-0.69,3.32-0.69
				c2.25,0,4.03,0.65,5.33,1.96c1.3,1.31,1.95,3.1,1.95,5.38v13.79h-4.15v-12.73c0-1.68-0.36-2.93-1.07-3.73
				c-0.71-0.8-1.82-1.21-3.32-1.21c-1.07,0-2,0.21-2.81,0.62c-0.8,0.41-1.59,1.09-2.35,2.04v15.01L187.16,205.81L187.16,205.81z"/>
			<path class="st1" d="M226.48,200.88v4.24c-1.05,0.38-2.07,0.65-3.06,0.83c-0.99,0.18-1.98,0.27-2.95,0.27
				c-3.39,0-6.18-1.02-8.36-3.05c-2.18-2.03-3.27-4.63-3.27-7.78c0-3.08,1.09-5.65,3.27-7.73c2.18-2.07,4.9-3.11,8.18-3.11
				c1.01,0,2,0.11,2.97,0.32c0.98,0.21,1.94,0.53,2.88,0.97v4.44c-0.96-0.59-1.91-1.02-2.85-1.3s-1.9-0.42-2.87-0.42
				c-2.13,0-3.87,0.64-5.22,1.92s-2.02,2.91-2.02,4.91c0,2.04,0.68,3.71,2.05,4.99s3.16,1.93,5.38,1.93c1.02,0,2.02-0.12,2.98-0.35
				C224.57,201.71,225.53,201.36,226.48,200.88z"/>
		</g>
	</g>
	<g>
		<g>
			<path class="st0" d="M29.63,230.46v-13.84h8.32v1.76h-6.36v4.19h6.18v1.79h-6.18v4.31h6.57v1.78h-8.53V230.46z"/>
			<path class="st0" d="M39.73,229.84v-1.95c0.55,0.36,1.07,0.64,1.58,0.83s0.97,0.29,1.39,0.29c0.47,0,0.84-0.09,1.1-0.26
				c0.27-0.17,0.4-0.41,0.4-0.72c0-0.38-0.5-0.82-1.49-1.32c-0.29-0.15-0.51-0.26-0.67-0.35c-0.85-0.44-1.44-0.86-1.75-1.26
				c-0.32-0.4-0.47-0.9-0.47-1.49c0-0.76,0.27-1.37,0.82-1.82c0.55-0.45,1.3-0.67,2.26-0.67c0.51,0,1.01,0.06,1.48,0.18
				s0.94,0.31,1.39,0.57v1.78c-0.56-0.31-1.07-0.54-1.54-0.69c-0.46-0.15-0.9-0.22-1.32-0.22c-0.38,0-0.68,0.07-0.89,0.2
				c-0.21,0.13-0.31,0.32-0.31,0.57c0,0.46,0.64,1.01,1.91,1.63l0.17,0.08c1,0.5,1.65,0.94,1.95,1.32s0.46,0.86,0.46,1.44
				c0,0.81-0.3,1.45-0.91,1.93c-0.6,0.48-1.4,0.72-2.4,0.72c-0.57,0-1.12-0.07-1.64-0.2C40.75,230.31,40.24,230.11,39.73,229.84z"/>
			<path class="st0" d="M52.99,230.18c-0.28,0.16-0.59,0.28-0.92,0.35c-0.33,0.08-0.68,0.11-1.05,0.11c-1.03,0-1.75-0.24-2.17-0.73
				c-0.42-0.49-0.63-1.38-0.63-2.67v-4.33h-1.55v-0.18l3.2-3.53h0.21v2.13h2.86v1.58h-2.86v4.19c0,0.76,0.09,1.25,0.28,1.47
				s0.54,0.33,1.05,0.33c0.28,0,0.55-0.04,0.81-0.11s0.52-0.19,0.77-0.34V230.18z"/>
			<path class="st0" d="M53.87,225.88c0-1.33,0.47-2.45,1.42-3.37c0.94-0.92,2.09-1.39,3.45-1.39c0.64,0,1.25,0.12,1.84,0.36
				c0.58,0.24,1.11,0.59,1.57,1.03c0.47,0.47,0.82,1,1.07,1.56c0.25,0.57,0.37,1.17,0.37,1.8s-0.13,1.24-0.38,1.83
				s-0.6,1.11-1.06,1.55c-0.46,0.46-0.98,0.8-1.56,1.03s-1.19,0.35-1.85,0.35c-1.36,0-2.51-0.46-3.45-1.39
				C54.34,228.33,53.87,227.21,53.87,225.88z M55.78,225.88c0,0.85,0.29,1.58,0.86,2.18c0.57,0.6,1.27,0.9,2.08,0.9
				s1.5-0.3,2.07-0.91c0.58-0.6,0.87-1.33,0.87-2.17s-0.29-1.56-0.86-2.16s-1.27-0.9-2.08-0.9s-1.5,0.3-2.08,0.9
				C56.07,224.33,55.78,225.04,55.78,225.88z"/>
			<path class="st0" d="M71.61,229.96c-0.34,0.23-0.7,0.4-1.08,0.51c-0.39,0.11-0.82,0.17-1.29,0.17c-1.32,0-2.4-0.44-3.23-1.33
				c-0.84-0.88-1.25-2.03-1.25-3.43s0.42-2.55,1.25-3.43c0.83-0.88,1.91-1.33,3.23-1.33c0.46,0,0.89,0.06,1.28,0.17
				s0.75,0.29,1.1,0.54v-0.51h1.82v13.74h-1.82v-5.1H71.61z M71.61,228.47v-5.12c-0.3-0.21-0.6-0.37-0.91-0.47s-0.64-0.15-1-0.15
				c-0.93,0-1.66,0.28-2.2,0.85c-0.53,0.57-0.8,1.35-0.8,2.34c0,0.99,0.27,1.77,0.8,2.33c0.53,0.57,1.27,0.85,2.2,0.85
				c0.36,0,0.69-0.05,1-0.15C71.01,228.85,71.31,228.69,71.61,228.47z"/>
			<path class="st0" d="M81.76,229.34c-0.46,0.44-0.91,0.75-1.36,0.95s-0.94,0.3-1.46,0.3c-1,0-1.78-0.29-2.35-0.86
				s-0.86-1.36-0.86-2.35v-6.06h1.84v5.6c0,0.74,0.16,1.28,0.47,1.64c0.31,0.35,0.8,0.53,1.46,0.53c0.47,0,0.88-0.09,1.23-0.27
				c0.35-0.18,0.7-0.48,1.03-0.91v-6.59h1.82v9.14h-1.82L81.76,229.34L81.76,229.34z"/>
			<path class="st0" d="M93.92,229.49c-0.61,0.39-1.23,0.68-1.88,0.88c-0.64,0.19-1.31,0.29-1.99,0.29c-1.44,0-2.6-0.45-3.46-1.34
				s-1.29-2.09-1.29-3.58c0-1.37,0.41-2.47,1.24-3.32s1.91-1.28,3.24-1.28c1.32,0,2.37,0.43,3.14,1.3c0.77,0.86,1.16,2.03,1.16,3.5
				v0.27h-6.85c0.05,0.86,0.34,1.54,0.85,2.02c0.51,0.49,1.2,0.73,2.07,0.73c0.58,0,1.19-0.11,1.81-0.32
				c0.63-0.21,1.28-0.54,1.95-0.97L93.92,229.49L93.92,229.49z M87.23,224.91h4.84c-0.06-0.67-0.3-1.2-0.72-1.6
				c-0.42-0.4-0.95-0.6-1.58-0.6c-0.7,0-1.26,0.19-1.69,0.56C87.64,223.64,87.36,224.19,87.23,224.91z"/>
			<path class="st0" d="M108.91,229.49c-0.61,0.39-1.23,0.68-1.88,0.88c-0.64,0.19-1.31,0.29-1.99,0.29c-1.44,0-2.6-0.45-3.46-1.34
				s-1.29-2.09-1.29-3.58c0-1.37,0.41-2.47,1.24-3.32s1.91-1.28,3.24-1.28c1.32,0,2.36,0.43,3.14,1.3c0.77,0.86,1.16,2.03,1.16,3.5
				v0.27h-6.85c0.05,0.86,0.34,1.54,0.85,2.02c0.51,0.49,1.2,0.73,2.07,0.73c0.58,0,1.19-0.11,1.82-0.32s1.28-0.54,1.95-0.97
				L108.91,229.49L108.91,229.49z M102.22,224.91h4.84c-0.06-0.67-0.3-1.2-0.72-1.6c-0.42-0.4-0.95-0.6-1.58-0.6
				c-0.7,0-1.26,0.19-1.69,0.56C102.63,223.64,102.35,224.19,102.22,224.91z"/>
			<path class="st0" d="M110.77,230.46v-9.14h1.82v1.12c0.46-0.44,0.91-0.75,1.36-0.96c0.45-0.2,0.94-0.3,1.46-0.3
				c0.67,0,1.24,0.12,1.69,0.37s0.83,0.64,1.14,1.17c0.56-0.55,1.09-0.95,1.58-1.19s1.01-0.36,1.57-0.36c1,0,1.78,0.29,2.36,0.86
				s0.87,1.36,0.87,2.36v6.05h-1.85v-5.59c0-0.75-0.15-1.29-0.46-1.64c-0.31-0.35-0.79-0.52-1.44-0.52c-0.48,0-0.9,0.09-1.26,0.27
				c-0.36,0.18-0.7,0.48-1.04,0.89v6.59h-1.78v-5.59c0-0.74-0.16-1.28-0.47-1.64c-0.31-0.35-0.8-0.53-1.46-0.53
				c-0.47,0-0.88,0.09-1.23,0.27c-0.35,0.18-0.7,0.48-1.03,0.89v6.59h-1.83V230.46z"/>
			<path class="st0" d="M136.02,230.46v-12.04h-5.08v-1.8h12.14v1.8H138v12.04H136.02z"/>
			<path class="st0" d="M148.85,229.49c-0.61,0.39-1.23,0.68-1.88,0.88c-0.64,0.19-1.31,0.29-1.99,0.29c-1.44,0-2.6-0.45-3.46-1.34
				s-1.29-2.09-1.29-3.58c0-1.37,0.41-2.47,1.24-3.32s1.91-1.28,3.24-1.28c1.32,0,2.36,0.43,3.14,1.3c0.77,0.86,1.16,2.03,1.16,3.5
				v0.27h-6.85c0.05,0.86,0.34,1.54,0.85,2.02c0.51,0.49,1.2,0.73,2.07,0.73c0.58,0,1.19-0.11,1.82-0.32s1.28-0.54,1.95-0.97
				L148.85,229.49L148.85,229.49z M142.17,224.91h4.84c-0.06-0.67-0.3-1.2-0.72-1.6c-0.42-0.4-0.95-0.6-1.58-0.6
				c-0.7,0-1.26,0.19-1.69,0.56C142.58,223.64,142.3,224.19,142.17,224.91z"/>
			<path class="st0" d="M150.71,230.46v-9.14h1.82v1.12c0.46-0.44,0.91-0.75,1.36-0.96c0.45-0.2,0.94-0.3,1.46-0.3
				c0.67,0,1.24,0.12,1.69,0.37s0.83,0.64,1.14,1.17c0.56-0.55,1.09-0.95,1.58-1.19s1.01-0.36,1.57-0.36c1,0,1.78,0.29,2.36,0.86
				s0.87,1.36,0.87,2.36v6.05h-1.85v-5.59c0-0.75-0.15-1.29-0.46-1.64s-0.79-0.52-1.44-0.52c-0.48,0-0.9,0.09-1.26,0.27
				c-0.36,0.18-0.7,0.48-1.04,0.89v6.59h-1.78v-5.59c0-0.74-0.16-1.28-0.47-1.64c-0.31-0.35-0.8-0.53-1.46-0.53
				c-0.47,0-0.88,0.09-1.23,0.27c-0.35,0.18-0.7,0.48-1.03,0.89v6.59h-1.83V230.46z"/>
			<path class="st0" d="M166.84,235.06v-13.74h1.84v0.51c0.34-0.24,0.71-0.42,1.09-0.54c0.38-0.12,0.81-0.17,1.27-0.17
				c1.32,0,2.4,0.44,3.23,1.33c0.83,0.88,1.24,2.03,1.24,3.43s-0.41,2.55-1.24,3.43c-0.83,0.88-1.91,1.33-3.23,1.33
				c-0.47,0-0.9-0.05-1.28-0.16c-0.38-0.11-0.74-0.28-1.07-0.52v5.1L166.84,235.06L166.84,235.06z M168.68,223.33v5.12
				c0.3,0.22,0.6,0.38,0.91,0.48c0.31,0.1,0.63,0.15,0.98,0.15c0.93,0,1.66-0.29,2.2-0.86c0.53-0.57,0.8-1.35,0.8-2.35
				c0-0.99-0.27-1.77-0.8-2.33s-1.27-0.85-2.2-0.85c-0.35,0-0.68,0.05-0.98,0.15C169.28,222.95,168.97,223.11,168.68,223.33z"/>
			<path class="st0" d="M176.68,225.88c0-1.33,0.47-2.45,1.42-3.37c0.94-0.92,2.09-1.39,3.45-1.39c0.64,0,1.25,0.12,1.84,0.36
				c0.58,0.24,1.11,0.59,1.57,1.03c0.47,0.47,0.82,1,1.07,1.56c0.25,0.57,0.37,1.17,0.37,1.8s-0.12,1.24-0.38,1.83
				c-0.25,0.59-0.6,1.11-1.06,1.55c-0.46,0.46-0.98,0.8-1.56,1.03s-1.19,0.35-1.85,0.35c-1.36,0-2.51-0.46-3.45-1.39
				C177.15,228.33,176.68,227.21,176.68,225.88z M178.59,225.88c0,0.85,0.29,1.58,0.86,2.18c0.58,0.6,1.27,0.9,2.08,0.9
				c0.8,0,1.49-0.3,2.07-0.91c0.58-0.6,0.87-1.33,0.87-2.17s-0.29-1.56-0.86-2.16c-0.57-0.6-1.27-0.9-2.08-0.9s-1.5,0.3-2.08,0.9
				C178.88,224.33,178.59,225.04,178.59,225.88z"/>
			<path class="st0" d="M193.52,230.46v-13.84h4.05c1.4,0,2.48,0.33,3.24,0.99s1.14,1.59,1.14,2.8c0,0.91-0.21,1.64-0.62,2.2
				c-0.42,0.55-1.07,0.97-1.97,1.25c0.23,0.13,0.45,0.29,0.65,0.5c0.2,0.21,0.47,0.56,0.79,1.04l3.36,5.07h-2.4l-2.37-3.63
				c-0.71-1.1-1.29-1.79-1.73-2.1s-0.96-0.46-1.57-0.46h-0.59v6.18L193.52,230.46L193.52,230.46z M195.51,222.62h1.64
				c0.92,0,1.61-0.18,2.07-0.53c0.46-0.36,0.69-0.9,0.69-1.63c0-0.75-0.22-1.3-0.65-1.64c-0.44-0.34-1.14-0.51-2.11-0.51h-1.64
				V222.62z"/>
			<path class="st0" d="M212.34,229.49c-0.61,0.39-1.23,0.68-1.88,0.88c-0.64,0.19-1.31,0.29-1.99,0.29c-1.44,0-2.6-0.45-3.46-1.34
				s-1.29-2.09-1.29-3.58c0-1.37,0.41-2.47,1.24-3.32c0.83-0.85,1.91-1.28,3.24-1.28c1.32,0,2.36,0.43,3.14,1.3
				c0.77,0.86,1.16,2.03,1.16,3.5v0.27h-6.85c0.05,0.86,0.34,1.54,0.85,2.02c0.51,0.49,1.2,0.73,2.07,0.73
				c0.58,0,1.18-0.11,1.81-0.32c0.63-0.21,1.28-0.54,1.95-0.97v1.82H212.34z M205.65,224.91h4.84c-0.06-0.67-0.3-1.2-0.72-1.6
				c-0.42-0.4-0.95-0.6-1.58-0.6c-0.7,0-1.26,0.19-1.69,0.56C206.06,223.64,205.78,224.19,205.65,224.91z"/>
			<path class="st0" d="M218.76,229.71c-0.46,0.32-0.9,0.56-1.31,0.7c-0.41,0.14-0.86,0.21-1.33,0.21c-0.82,0-1.46-0.2-1.92-0.59
				c-0.46-0.39-0.69-0.93-0.69-1.62c0-0.65,0.25-1.21,0.75-1.7c0.5-0.49,1.26-0.9,2.26-1.24l2.17-0.72
				c0.01-0.05,0.01-0.11,0.01-0.16s0-0.13,0-0.23c0-0.55-0.13-0.94-0.4-1.18c-0.27-0.24-0.71-0.36-1.32-0.36
				c-0.51,0-1.03,0.11-1.57,0.32c-0.54,0.21-1.08,0.53-1.62,0.96v-1.8c0.47-0.38,0.99-0.67,1.57-0.87c0.58-0.19,1.2-0.29,1.85-0.29
				c1.17,0,2.03,0.26,2.56,0.78c0.54,0.52,0.8,1.35,0.8,2.51v3.87c0,0.32,0.03,0.55,0.08,0.69c0.06,0.14,0.15,0.2,0.28,0.2
				c0.11,0,0.23-0.03,0.35-0.09s0.32-0.2,0.6-0.42v1.11c-0.33,0.28-0.66,0.49-1,0.63c-0.34,0.14-0.69,0.2-1.05,0.2
				c-0.35,0-0.61-0.07-0.79-0.22C218.88,230.26,218.78,230.03,218.76,229.71z M218.69,228.6v-2.68c-1.23,0.38-2.07,0.74-2.54,1.06
				c-0.46,0.32-0.7,0.7-0.7,1.13c0,0.38,0.12,0.67,0.36,0.87c0.24,0.21,0.58,0.31,1.02,0.31c0.32,0,0.64-0.06,0.95-0.17
				C218.09,229,218.39,228.83,218.69,228.6z"/>
			<path class="st0" d="M223.03,230.46v-13.84h1.82v13.84H223.03z"/>
		</g>
	</g>
</g>
</svg>
