<?xml version="1.0" encoding="utf-8"?>
<!-- Generator: Adobe Illustrator 25.2.1, SVG Export Plug-In . SVG Version: 6.00 Build 0)  -->
<svg version="1.1" id="Layer_1" xmlns="http://www.w3.org/2000/svg" xmlns:xlink="http://www.w3.org/1999/xlink" x="0px" y="0px"
	 viewBox="0 0 256 256" style="enable-background:new 0 0 256 256;" xml:space="preserve">
<style type="text/css">
	.st0{fill:#0076AD;}
</style>
<path class="st0" d="M227.83,146.82c-0.01-2.22-1.13-3.64-3.38-4.24c-15.75-4.24-26.7-7.14-32.86-8.67
	c-0.28-0.07-0.47-0.32-0.47-0.6v-45.9c0-1.39-0.71-2.68-1.89-3.41L144.1,55.98c-0.89-0.55-1.99-0.62-2.93-0.2L45.84,98.09
	c-1.74,0.77-2.5,2.82-1.68,4.54l0.13,0.28c0.76,1.85,2.89,2.7,4.72,1.91c0.2-0.08,5.12-2.28,14.78-6.58
	c46.14-20.58,69.31-30.89,69.5-30.93c2.65-0.67,4.52-3.06,6.84,0.11c0.22,0.3,0.35,0.68,0.35,1.06
	c-0.01,28.56-0.01,47.18-0.02,55.85c-0.01,4.27,2.7,4.28,6.69,5.34c17.24,4.62,26.43,7.04,27.58,7.26c2.89,0.58,5.65,1.39,8.28,2.42
	c0.26,0.11,0.53,0.16,0.79,0.18c0.54,0.04,0.84,0.07,0.91,0.08c21.41,5.69,33.04,8.78,34.88,9.24c0.39,0.09,0.65,0.44,0.65,0.83
	l-0.02,43.69c-8.99,0.6-18,0.81-27.02,0.65c-10.88-0.19-16.33-0.28-16.37-0.28c-28.4-0.11-60.65,0.04-96.74,0.43
	c-1.13,0.01-1.63-0.33-1.48-1.02l-0.2-77.78c0-1.78,1.7-3.05,3.4-2.56l40.79,11.98c1.85,0.55,2.86,2.51,2.24,4.34l-0.08,0.29
	c-0.54,1.84-2.45,2.89-4.29,2.35l-33.72-9.95c-0.23-0.07-0.48,0.11-0.48,0.36c-0.04,21.12-0.02,41.34,0.01,60.63
	c0,1.16,0.64,1.89,1.92,2.21l122-0.04c1.45-0.4,2.17-1.23,2.19-2.5c0.05-8.55,0.05-17.38,0.01-26.51c-0.01-0.36-0.26-0.69-0.61-0.78
	l-77.24-20.6c-0.39-0.11-0.65-0.46-0.65-0.85V74.41c0-0.39-0.4-0.65-0.75-0.49c-37.63,16.68-60.88,27.02-69.76,31
	c-1.88,0.84-3.06,1.34-3.57,1.5c-1.7,0.53-2.9,1.1-3.64,1.7c-0.01,0-0.01,0-0.02,0.01l-10.97,4.78c-0.39,0.18-0.64,0.56-0.64,0.98
	v5.73c0,0.43-0.25,0.82-0.63,1.02c-2.01,1.04-4.06,1.96-6.13,2.78c-1.54,0.61-3.57,1.39-6.07,2.34c-1.65,0.62-2.79,1.71-3.41,3.26
	c-0.11,0.25-0.15,0.51-0.15,0.79c0.02,41.37,0.01,63.06-0.02,65.06c-0.07,3.51,0.74,5.59,4.57,5.58
	c18.23-0.06,81.95-0.04,191.15,0.05c2.01,0,3.31-1.03,3.89-3.09c0.04-0.11,0.05-0.22,0.05-0.33
	C227.86,187.25,227.86,170.5,227.83,146.82z M183.67,131.31c0,0.25-0.23,0.43-0.47,0.36l-35.02-9.34c-0.16-0.04-0.28-0.19-0.28-0.36
	V67.68c0-0.3,0.33-0.48,0.57-0.33l35.02,21.76c0.11,0.06,0.18,0.19,0.18,0.32V131.31z M71.56,192.12c0,0.91-0.74,1.66-1.65,1.66
	h-32.8c-1.26,0-2.27-1.03-2.24-2.29c0.39-20.81,0.57-40.11,0.58-57.89c0.01-1.34,0.27-1.93,0.77-1.73l34.11-14.53
	c0.4-0.16,0.85,0.02,1.02,0.42l0.22,0.6L71.56,192.12z"/>
</svg>
