<?xml version="1.0" encoding="utf-8"?>
<!-- Generator: Adobe Illustrator 25.2.1, SVG Export Plug-In . SVG Version: 6.00 Build 0)  -->
<svg version="1.1" id="Layer_1" xmlns="http://www.w3.org/2000/svg" xmlns:xlink="http://www.w3.org/1999/xlink" x="0px" y="0px"
	 viewBox="0 0 32 32" style="enable-background:new 0 0 32 32;" xml:space="preserve">
<style type="text/css">
	.st0{fill:#0076AD;stroke:#FFFFFF;stroke-width:0.25;stroke-miterlimit:10;}
</style>
<path class="st0" d="M28.5,18.36c0-0.28-0.14-0.46-0.42-0.53c-1.97-0.53-3.34-0.89-4.11-1.09c-0.04-0.01-0.06-0.04-0.06-0.08v-5.75
	c0-0.17-0.09-0.34-0.24-0.43l-5.65-3.51c-0.11-0.07-0.25-0.08-0.37-0.03l-11.93,5.3c-0.22,0.1-0.31,0.35-0.21,0.57l0.02,0.04
	c0.1,0.23,0.36,0.34,0.59,0.24c0.03-0.01,0.64-0.29,1.85-0.82c5.78-2.58,8.68-3.87,8.7-3.87c0.33-0.08,0.57-0.38,0.86,0.01
	c0.03,0.04,0.04,0.09,0.04,0.13c0,3.58,0,5.91,0,6.99c0,0.53,0.34,0.54,0.84,0.67c2.16,0.58,3.31,0.88,3.45,0.91
	c0.36,0.07,0.71,0.17,1.04,0.3c0.03,0.01,0.07,0.02,0.1,0.02c0.07,0.01,0.11,0.01,0.11,0.01c2.68,0.71,4.14,1.1,4.37,1.16
	c0.05,0.01,0.08,0.06,0.08,0.1l0,5.47c-1.13,0.08-2.25,0.1-3.38,0.08c-1.36-0.02-2.04-0.04-2.05-0.04
	c-3.56-0.01-7.59,0.01-12.11,0.05c-0.14,0-0.2-0.04-0.19-0.13l-0.03-9.74c0-0.22,0.21-0.38,0.43-0.32l5.11,1.5
	c0.23,0.07,0.36,0.31,0.28,0.54l-0.01,0.04c-0.07,0.23-0.31,0.36-0.54,0.29l-4.22-1.25c-0.03-0.01-0.06,0.01-0.06,0.05
	c-0.01,2.64,0,5.17,0,7.59c0,0.15,0.08,0.24,0.24,0.28l15.27-0.01c0.18-0.05,0.27-0.15,0.27-0.31c0.01-1.07,0.01-2.18,0-3.32
	c0-0.05-0.03-0.09-0.08-0.1l-9.67-2.58c-0.05-0.01-0.08-0.06-0.08-0.11V9.29c0-0.05-0.05-0.08-0.09-0.06
	c-4.71,2.09-7.62,3.38-8.73,3.88c-0.24,0.11-0.38,0.17-0.45,0.19c-0.21,0.07-0.36,0.14-0.46,0.21c0,0,0,0,0,0l-1.37,0.6
	c-0.05,0.02-0.08,0.07-0.08,0.12v0.72c0,0.05-0.03,0.1-0.08,0.13c-0.25,0.13-0.51,0.25-0.77,0.35c-0.19,0.08-0.45,0.17-0.76,0.29
	c-0.21,0.08-0.35,0.21-0.43,0.41c-0.01,0.03-0.02,0.06-0.02,0.1c0,5.18,0,7.89,0,8.14c-0.01,0.44,0.09,0.7,0.57,0.7
	c2.28-0.01,10.26-0.01,23.93,0.01c0.25,0,0.41-0.13,0.49-0.39c0.01-0.01,0.01-0.03,0.01-0.04C28.5,23.42,28.5,21.32,28.5,18.36z
	 M22.97,16.41c0,0.03-0.03,0.05-0.06,0.05l-4.38-1.17c-0.02-0.01-0.04-0.02-0.04-0.05v-6.8c0-0.04,0.04-0.06,0.07-0.04l4.38,2.72
	c0.01,0.01,0.02,0.02,0.02,0.04V16.41z M8.94,24.03c0,0.11-0.09,0.21-0.21,0.21H4.62c-0.16,0-0.28-0.13-0.28-0.29
	c0.05-2.6,0.07-5.02,0.07-7.25c0-0.17,0.03-0.24,0.1-0.22l4.27-1.82c0.05-0.02,0.11,0,0.13,0.05l0.03,0.08L8.94,24.03z"/>
</svg>
